<?xml version="1.0" encoding="utf-8"?>
<!-- Generator: Adobe Illustrator 23.0.5, SVG Export Plug-In . SVG Version: 6.00 Build 0)  -->
<svg version="1.1" id="Capa_1" xmlns="http://www.w3.org/2000/svg" xmlns:xlink="http://www.w3.org/1999/xlink" x="0px" y="0px"
	 viewBox="0 0 43.85 36.05" style="enable-background:new 0 0 43.85 36.05;" xml:space="preserve" width="68px" height="56px">
<style type="text/css">
	.st0{fill:#C4CCE8;}
</style>
<title>73F88AD3-2AEC-4363-B4CA-300A4C4592C8</title>
<desc>Created with sketchtool.</desc>
<g id="Page-1">
	<g transform="translate(-703.000000, -720.000000)">
		<g id="Tabs" transform="translate(80.000000, 110.000000)">
			<g id="Tabs-content" transform="translate(0.000000, 64.000000)">
				<g id="Option" transform="translate(572.000000, 512.000000)">
					<path id="Messages" class="st0" id="Desktop-HD" d="M93.29,45.4h-3.75v0v-9.88c0-0.87-0.72-1.52-1.58-1.52H52.56C51.69,34,51,34.66,51,35.52
						v15.59c0,0.87,0.69,1.57,1.56,1.57h3.75v9.88c0,0.87,0.72,1.62,1.58,1.62h17.18l5.08,5.38c0.3,0.32,0.72,0.48,1.15,0.48
						c0.19,0,0.38-0.04,0.57-0.12c0.6-0.24,0.99-0.82,0.99-1.47v-4.28h10.43c0.87,0,1.56-0.75,1.56-1.62V46.98
						C94.85,46.11,94.15,45.4,93.29,45.4z M54.15,49.53V37.15h32.25v12.39H70.1c-0.43,0-0.84,0.18-1.14,0.5l-2.82,3.01v-1.93
						c0-0.87-0.72-1.58-1.58-1.58H54.15z M91.7,61.04H81.29c-0.87,0-1.58,0.66-1.58,1.53v1.93l-2.82-2.98
						c-0.3-0.32-0.71-0.47-1.14-0.47h-16.3v-8.36h0.01h3.53v4.33c0,0.65,0.39,1.23,0.99,1.46c0.19,0.07,0.38,0.11,0.58,0.11
						c0.43,0,0.84-0.18,1.15-0.5l5.08-5.41h17.18c0.87,0,1.58-0.7,1.58-1.57v-2.56h2.16L91.7,61.04L91.7,61.04z M74.54,40.49
						c0-1.17,1.34-2.21,2.79-2.21c1.53,0,3.03,0.7,3.03,2.38c0,1.55-1.78,2.15-2.16,2.71c-0.29,0.42-0.19,1-0.98,1
						c-0.51,0-0.76-0.42-0.76-0.8c0-1.42,2.09-1.74,2.09-2.91c0-0.64-0.43-1.03-1.14-1.03c-1.53,0-0.93,1.57-2.09,1.57
						C74.9,41.22,74.54,40.97,74.54,40.49z M78.25,46.13c0,0.54-0.44,0.98-0.98,0.98s-0.98-0.44-0.98-0.98
						c0-0.54,0.44-0.98,0.98-0.98S78.25,45.59,78.25,46.13z M74.08,55.43c0,0.69-0.56,1.24-1.24,1.24c-0.69,0-1.25-0.56-1.25-1.24
						c0-0.69,0.56-1.25,1.25-1.25C73.52,54.19,74.08,54.75,74.08,55.43z M79.52,55.43c0,0.69-0.56,1.24-1.25,1.24
						s-1.24-0.56-1.24-1.24c0-0.69,0.56-1.25,1.24-1.25C78.96,54.19,79.52,54.75,79.52,55.43z M84.96,55.43
						c0,0.69-0.56,1.24-1.24,1.24c-0.69,0-1.25-0.56-1.25-1.24c0-0.69,0.56-1.25,1.25-1.25C84.4,54.19,84.96,54.75,84.96,55.43z
						 M74.5,46.98H60.24c-0.43,0-0.79-0.35-0.79-0.79c0-0.43,0.35-0.79,0.79-0.79H74.5c0.43,0,0.79,0.35,0.79,0.79
						C75.28,46.62,74.93,46.98,74.5,46.98z"/>
				</g>
			</g>
		</g>
	</g>
</g>
</svg>
